# xmcd
#
# Track frame offsets: 
#        150
#        23321
#        38199
#        50106
#        62711
#        75175
#        91281
#        103366
#        115388
#        135015
#        148113
#        161368
#        177249
#        195562
#        208122
#        221325
#        236105
#        247145
#        264215
#        281559
#        299141
#
# Disc length: 4180 seconds
#
# Revision: 0
# Processed by: cddbd v1.5.2PL0 Copyright (c) Steve Scherf et al.
# Submitted via: ExactAudioCopy v1.1
#
DISCID=33105215
DTITLE=Various Artist - 1969 - Woodstock Generation - CD 2
DYEAR=2019
DGENRE=Oldies
TTITLE0=Simon and Garfunkel - The Boxer
TTITLE1=Zager and Evans - In The Year 2525
TTITLE2=The Tremeloes - My Little Lady
TTITLE3=The Archies - Sugar Sugar
TTITLE4=Bob and Earl - Harlem Shuffle
TTITLE5=Melanie - Beautiful People
TTITLE6=Sir Douglas Quintet - Mendocino
TTITLE7=R.B. Greaves - Take A Letter Maria
TTITLE8=Rod Stewart - Handbags and Gladrags
TTITLE9=Jackson 5 - I Want You Back
TTITLE10=Marvin Gaye - Too Busy Thinking About My Baby
TTITLE11=Diana Ross and The Supremes - Someday We'll Be Together
TTITLE12=Steam - Na Na Hey Hey Kiss Him Goodbye
TTITLE13=Amen Corner - (If Paradise Is) Half As Nice
TTITLE14=Kenny Rogers and The First Edition - Ruby, Don't Take Your Love
TTITLE14=To Town
TTITLE15=Tee-Set - Ma Belle Amie
TTITLE16=The Box Tops - Soul Deep
TTITLE17=Blue Mink - Melting Pot
TTITLE18=Spooky Tooth - That Was Only Yesterday
TTITLE19=Thunderclap Newman - Something In The Air
TTITLE20=Chicken Shack - I'd Rather Go Blind
EXTD=
EXTT0=
EXTT1=
EXTT2=
EXTT3=
EXTT4=
EXTT5=
EXTT6=
EXTT7=
EXTT8=
EXTT9=
EXTT10=
EXTT11=
EXTT12=
EXTT13=
EXTT14=
EXTT15=
EXTT16=
EXTT17=
EXTT18=
EXTT19=
EXTT20=
PLAYORDER=
